<?xml version="1.0" encoding="utf-8"?>
<!-- Generator: Adobe Illustrator 27.5.0, SVG Export Plug-In . SVG Version: 6.00 Build 0)  -->
<svg version="1.1" id="Isolation_Mode" xmlns="http://www.w3.org/2000/svg" xmlns:xlink="http://www.w3.org/1999/xlink" x="0px"
	 y="0px" viewBox="0 0 144 144" enable-background="new 0 0 144 144" xml:space="preserve">
<path fill="#FFFFFF" d="M47.5,10c8.8,0.9,17.4,1.4,25.9,1.4c8.5,0,16.7-0.5,24.7-1.4c0.7-0.1,1.4,0,2,0.3c6.4,2.8,12.9,5.9,19.4,9.2
	c6.4,3.3,12.9,6.8,19.5,10.5c1.5,0.8,2.2,2.5,1.9,4.1h0c-1,5.8-2.6,11.4-4.7,16.9c-2.1,5.5-4.8,10.8-8,15.9
	c-1.1,1.8-3.6,2.4-5.4,1.3l0,0c-3.3-1.8-6.2-3.5-8.6-5.1L114,63c-0.4,9-0.6,19.3-0.6,29.6c-0.1,13.5,0.2,27.3,0.6,38.7
	c0.1,2-1.4,3.7-3.3,4l0,0C99,137.2,86.9,138,74.3,138c-12.5,0-25.7-0.9-39.4-2.6c-2-0.3-3.5-2-3.4-4h0c0.5-11.4,0.7-25.2,0.6-38.7
	C32,82.3,31.8,72,31.5,63l-0.2,0.1c-2.4,1.6-5.3,3.3-8.7,5.2c-1.8,1-4.1,0.4-5.2-1.4l0,0c-3.2-5.1-5.8-10.4-8-15.9
	C7.2,45.6,5.6,40,4.5,34.2c-0.3-1.7,0.6-3.4,2-4.2c6.5-3.8,13-7.2,19.3-10.5c6.5-3.3,13-6.4,19.4-9.2C46,10,46.8,9.9,47.5,10
	L47.5,10z M106.8,54.2L98,17.9l0,0c-1.2,0.1-2.4,0.3-3.7,0.4c0.1,0.6,0.1,1.2,0.1,1.9c0,5.1-2.6,9.6-6.7,12.8
	c-3.9,3-9.2,4.9-14.9,4.9c-5.8,0-11.1-1.9-14.9-4.9c-4.2-3.2-6.7-7.8-6.7-12.8c0-0.6,0-1.3,0.1-1.9c-1.2-0.1-2.4-0.2-3.7-0.3l0,0
	l-8.8,36.3c0.1,0.4,0.2,0.8,0.3,1.2c0.6,10.4,0.9,23.7,1,37.2c0.1,12.3-0.1,24.8-0.5,35.5c12,1.4,23.6,2.1,34.9,2.1
	c11,0,21.6-0.7,31.8-2c-0.4-10.7-0.6-23.2-0.5-35.5c0.1-13.5,0.4-26.7,1-37.1C106.5,55.1,106.6,54.6,106.8,54.2L106.8,54.2z
	 M59,18.8c-0.1,0.4-0.1,0.9-0.1,1.3c0,2.5,1.4,4.9,3.7,6.6c2.5,2,6.1,3.2,10.1,3.2c4,0,7.6-1.2,10.1-3.2c2.3-1.8,3.7-4.1,3.7-6.6
	c0-0.4,0-0.9-0.1-1.3c-4.3,0.2-8.6,0.4-13,0.4C68.7,19.3,63.9,19.1,59,18.8L59,18.8z"/>
</svg>
