<?xml version="1.0" encoding="utf-8"?>
<!-- Generator: Adobe Illustrator 27.5.0, SVG Export Plug-In . SVG Version: 6.00 Build 0)  -->
<svg version="1.1" id="Layer_1" xmlns="http://www.w3.org/2000/svg" xmlns:xlink="http://www.w3.org/1999/xlink" x="0px" y="0px"
	 viewBox="0 0 179 179" enable-background="new 0 0 179 179" xml:space="preserve">
<g>
	<path fill="#FFFFFF" d="M151.4,47.8c-7.2-2.6-13.7-4.2-19.8-4.9c-6.3-0.7-13-0.1-19.4,0.4l-1.5,0.1c-8,0.7-16.1,0.7-22.9,0.7
		c-11.1-0.1-20.7-1.3-29.5-3.6c-3.7,5.1-7.2,10.8-10.3,17.2c40.7,13.6,79.4,33.3,115.2,58.7c3.1-8.5,4.8-17.7,4.8-27.3
		c0-14-3.6-27.1-9.9-38.5l-0.9-0.4C155.5,49.3,153.6,48.5,151.4,47.8z"/>
	<path fill="#FFFFFF" d="M53.6,38.9c-6.1-2.5-9.8-6-11-10.7c-0.4-1.5-0.4-3.2-0.2-4.9C32.7,30,24.6,38.8,18.7,49
		c8.3,2.1,16.6,4.5,24.7,7.2C46.5,49.8,49.9,44,53.6,38.9z"/>
	<path fill="#FFFFFF" d="M29,106.2c0.6-7,1.9-14.2,3.7-21.3c-2-0.8-3.9-1.3-5.7-1.4c-5.9-0.4-12.3,2.9-17.2,8.8
		c-0.4,0.5-0.8,1-1.2,1.5l-0.5,0.6c1.4,20.8,10.7,39.5,25,52.9c-0.4-1.4-0.8-2.9-1.2-4.3C28.9,131.2,27.9,118.8,29,106.2z"/>
	<path fill="#FFFFFF" d="M47.2,27c0.8,3.3,4,6,9.3,7.9c4.5-5.7,9.3-10.5,14.6-14.6c6.5-5,13.7-8.8,21.3-11.2C91,9,89.5,9,88,9
		c-14.5,0-28,3.9-39.7,10.6l-0.3,0.8C47,22.9,46.7,25.1,47.2,27z"/>
	<path fill="#FFFFFF" d="M102.3,11.6c-15.9,2.7-29.5,11-40.8,24.7c7.8,1.9,16.5,2.9,26.3,3c6.7,0.1,14.6,0,22.4-0.6l1.5-0.1
		c6.7-0.6,13.6-1.2,20.4-0.4c6.5,0.7,13.3,2.4,20.9,5.2c0.2,0.1,0.5,0.2,0.8,0.3c-11.1-16.1-28-27.9-47.7-32.5l-1.8,0.3
		C103.6,11.4,103,11.5,102.3,11.6z"/>
	<path fill="#FFFFFF" d="M27.3,78.7c2.2,0.1,4.4,0.6,6.7,1.5c1.9-6.5,4.4-13.1,7.4-19.7c-8.1-2.6-16.5-5-24.9-7.2l-0.1,0
		C11.3,63.5,8.3,75,8,87.1C13.7,81.3,20.6,78.2,27.3,78.7z"/>
	<path fill="#FFFFFF" d="M45.9,62c-3.2,7-5.7,13.8-7.5,20.2c0.2,0.1,0.3,0.2,0.5,0.2c9.2,5.2,16.2,13,21.3,19.2
		c7.1,8.8,13.8,18.8,20.5,30.8c4.7,8.3,9.4,16.2,16.5,22.3c4.9,4.2,10.5,7.4,16.8,9.3l0.9,0.3c20.9-7.4,37.8-23.3,46.6-43.5
		l-0.1-0.1C125.4,95.3,86.6,75.6,45.9,62z"/>
	<path fill="#FFFFFF" d="M76.4,134.8c-6.6-11.7-13.2-21.6-20.1-30.1c-6.9-8.5-12.9-14-19.3-17.7c-5.7,22.9-3.8,41.7-0.5,54.6
		c0.9,3.6,2.1,7.2,3.4,10.6l0.4,1.1C53.7,163.2,70.1,169,88,169c6.6,0,13-0.8,19.2-2.3c-4.8-2.1-9.2-4.8-13.2-8.3
		C86.3,151.8,81.3,143.4,76.4,134.8z"/>
</g>
</svg>
