<?xml version="1.0" encoding="utf-8"?>
<!-- Generator: Adobe Illustrator 27.5.0, SVG Export Plug-In . SVG Version: 6.00 Build 0)  -->
<svg version="1.1" id="Australia" xmlns="http://www.w3.org/2000/svg" xmlns:xlink="http://www.w3.org/1999/xlink" x="0px" y="0px"
	 viewBox="0 0 551.9 328.9" enable-background="new 0 0 551.9 328.9" xml:space="preserve">
<g>
	<path fill="#FFFFFF" d="M268.8,19.5c-52.1,0-99.2,15.2-137.7,36c-7.8,15-17.4,46-17.4,107.6c0,0.2,0,0.3,0,0.5
		c0.1,60.9,9.6,92.2,17.3,107.5c38.1,21.1,85,36.6,137.8,36.6c51.7,0,98.1-14.8,136.2-35.3c7.8-14.9,17.9-46.2,18-108.8
		c0-0.2,0-0.3,0-0.5c0-62.4-10-93.5-17.8-108.2C366.9,34.4,320.4,19.5,268.8,19.5z M144.9,84.6c-0.6-1.7,0.4-3.6,2.1-4.2
		c0.1,0,0.8-0.3,2.2-0.7c0.3-6.1,1-9.9,1.1-10.2c0.5-2.7,3.1-4.5,5.7-4c2.7,0.5,4.5,3,4,5.7c0,0.1-0.4,2.2-0.7,5.7
		c5.1-1.4,11.7-3,19.5-4.7c0.5-5.7,1.1-9.5,1.1-9.8c0.4-2.7,3-4.5,5.7-4.1c2.7,0.4,4.5,3,4.1,5.7c0,0.1-0.4,2.4-0.8,6.1
		c6.9-1.3,14.4-2.7,22.4-3.9c0.1-6.6,0.4-10.4,0.4-10.7c0.3-2.7,2.7-4.7,5.4-4.5c2.7,0.3,4.7,2.7,4.5,5.4c0,0.1-0.3,3.1-0.4,8.4
		c7.2-0.9,14.8-1.7,22.6-2.3c0.2-6.2,0.8-9.7,0.8-10c0.4-2.7,3-4.5,5.7-4.1c2.7,0.4,4.5,3,4.1,5.7c0,0.1-0.4,2.8-0.7,7.8
		c6-0.3,12.2-0.5,18.4-0.5c3.4,0,6.7,0,9.9,0.1c-0.2-4.8-0.6-7.4-0.7-7.4c-0.4-2.7,1.4-5.2,4.1-5.7c2.7-0.4,5.2,1.4,5.7,4.1
		c0,0.3,0.6,3.5,0.8,9.5c7.9,0.4,15.4,1.1,22.6,1.9c-0.1-4.8-0.3-7.4-0.3-7.5c-0.3-2.7,1.7-5.1,4.5-5.4c2.7-0.3,5.1,1.7,5.4,4.5
		c0,0.3,0.3,3.7,0.4,9.7c8,1.1,15.5,2.4,22.3,3.8c-0.3-3.1-0.6-5-0.7-5.1c-0.4-2.7,1.4-5.2,4.1-5.7c2.7-0.5,5.2,1.4,5.7,4.1
		c0,0.3,0.6,3.7,1.1,8.8c7.7,1.8,14.3,3.5,19.5,5c-0.3-3.1-0.6-5-0.6-5c-0.5-2.7,1.3-5.3,4-5.7c2.7-0.5,5.3,1.3,5.7,4
		c0.1,0.3,0.7,4,1,9.9c2,0.7,3.1,1.1,3.2,1.1c1.7,0.6,2.6,2.5,1.9,4.2c-0.4,1-1.1,1.7-2,2c0.1,0,0.1,0,0.1,0
		c1.7,0.6,2.6,2.5,1.9,4.2c-0.6,1.7-2.5,2.6-4.2,1.9c0,0-0.3-0.1-0.8-0.3c-0.2,3.6-0.5,7.4-1.1,11.5c-0.4,2.5-2.5,4.2-4.9,4.2
		c-0.2,0-0.5,0-0.7-0.1c-2.7-0.4-4.6-2.9-4.2-5.6c0.7-4.7,1-9.1,1.1-13.2c-4.9-1.5-11.5-3.3-19.4-5.1c0,3.7-0.1,7.7-0.5,11.7
		c-0.2,2.6-2.4,4.5-4.9,4.5c-0.2,0-0.3,0-0.5,0c-2.7-0.3-4.7-2.7-4.5-5.4c0.4-4.5,0.5-8.9,0.4-13c-7.1-1.4-14.9-2.8-23.4-4.1
		c-0.2,3.5-0.4,7.2-0.8,11.3c-0.2,2.6-2.4,4.5-4.9,4.5c-0.1,0-0.3,0-0.4,0c-2.7-0.2-4.7-2.6-4.5-5.4c0.4-4.3,0.6-8.2,0.8-11.7
		c-7.1-0.8-14.6-1.5-22.4-1.9c-0.1,3.7-0.4,7.8-0.8,12.4c-0.2,2.6-2.4,4.5-4.9,4.5c-0.2,0-0.3,0-0.5,0c-2.7-0.3-4.7-2.7-4.5-5.4
		c0.4-4.3,0.7-8.3,0.8-11.8c-3.3-0.1-6.6-0.1-10-0.1c-6.2,0-12.4,0.2-18.5,0.5c0.1,3.5,0.4,7.3,0.8,11.5c0.3,2.7-1.7,5.1-4.5,5.4
		c-0.2,0-0.3,0-0.5,0c-2.5,0-4.7-1.9-4.9-4.5c-0.4-4.3-0.7-8.3-0.8-11.8c-7.7,0.6-15.3,1.4-22.4,2.3c0.1,3.3,0.4,6.9,0.7,10.9
		c0.2,2.7-1.8,5.1-4.5,5.4c-0.1,0-0.3,0-0.4,0c-2.5,0-4.7-1.9-4.9-4.5c-0.3-3.7-0.6-7.2-0.7-10.4c-8.4,1.3-16.3,2.7-23.4,4.1
		c0,3.8,0.1,7.9,0.4,12c0.3,2.7-1.7,5.1-4.5,5.4c-0.2,0-0.3,0-0.5,0c-2.5,0-4.7-1.9-4.9-4.5c-0.3-3.7-0.5-7.3-0.5-10.8
		c-7.9,1.7-14.4,3.4-19.3,4.7c0.1,3.9,0.4,8.1,1.1,12.6c0.4,2.7-1.5,5.2-4.2,5.6c-0.2,0-0.5,0.1-0.7,0.1c-2.4,0-4.5-1.8-4.9-4.2
		c-0.6-3.9-0.9-7.7-1.1-11.2c-0.1,0-0.1,0-0.2,0c-0.3,0.1-0.7,0.2-1,0.2c-1.4,0-2.7-0.9-3.1-2.3c-0.6-1.7,0.4-3.6,2.1-4.1
		C146,86.3,145.2,85.6,144.9,84.6z"/>
	<path fill="#FFFFFF" d="M77.9,163.1c0-37.1,5.3-63,10.8-80c-39.2,30.3-62.2,63.5-61.4,80c0,0.2,0,0.3,0,0.5
		c1.2,16.5,23.6,49.3,61.5,79.4c-5.5-17-10.9-42.8-11-79.4C77.9,163.4,77.9,163.2,77.9,163.1z"/>
	<path fill="#FFFFFF" d="M447.7,82.2c5.6,16.9,11,43.1,11,80.9c0,0.2,0,0.3,0,0.5c-0.1,38.3-5.9,64.8-11.7,81.7
		c40.1-30.7,63.9-64.8,64.3-81.7c0-0.2,0-0.3,0-0.5C511.4,146.4,487.7,112.7,447.7,82.2z"/>
</g>
</svg>
