<?xml version="1.0" encoding="utf-8"?>
<!-- Generator: Adobe Illustrator 27.5.0, SVG Export Plug-In . SVG Version: 6.00 Build 0)  -->
<svg version="1.1" id="Isolation_Mode" xmlns="http://www.w3.org/2000/svg" xmlns:xlink="http://www.w3.org/1999/xlink" x="0px"
	 y="0px" viewBox="0 0 144 144" enable-background="new 0 0 144 144" xml:space="preserve">
<path fill="#FFFFFF" d="M138.6,63.8c0,0-7.4,9.2-27,8.1c0,0,0.2,17.2-5.3,25.1c0,0-0.8,10.7,0.6,28.5c0,0,2.5,2.5-1.9,4.5
	c0,0-10.8,2.2-30.7,2.4l0,0c-0.7,0-1.4,0-2.1,0c-0.7,0-1.4,0-2.1,0v0c-20-0.3-30.7-2.4-30.7-2.4c-4.3-2.1-1.9-4.5-1.9-4.5
	c1.3-17.7,0.6-28.5,0.6-28.5c-5.5-7.9-5.3-25.1-5.3-25.1c-19.6,1.1-27-8.1-27-8.1l0.8-3.2c-2.3-2.1-0.4-4.1-0.4-4.1
	c1.9-2.6,0.9-5.3,0.9-5.3l-0.8-4.7c2.1-26.6,29.6-24.1,29.6-24.1c2.1-3.1,10.1-3.9,18-4c-0.1,0.5-0.1,1.1-0.1,1.6
	c0,9,8.2,16.2,18.2,16.2c10.1,0,18.2-7.3,18.2-16.2c0-0.5,0-1.1-0.1-1.6c8,0.1,15.9,0.9,18,4c0,0,27.5-2.5,29.6,24.1l-0.8,4.7
	c0,0-0.9,2.6,0.9,5.3c0,0,1.9,2.1-0.4,4.1L138.6,63.8L138.6,63.8z"/>
</svg>
